<svg width="105" height="96" viewBox="0 0 105 96" fill="none" xmlns="http://www.w3.org/2000/svg">
<g clip-path="url(#clip0_32_2247)">
<g clip-path="url(#clip1_32_2247)">
<g clip-path="url(#clip2_32_2247)">
<g clip-path="url(#clip3_32_2247)">
<g clip-path="url(#clip4_32_2247)">
<g clip-path="url(#clip5_32_2247)">
<g clip-path="url(#clip6_32_2247)">
<path d="M16.6606 92.9801C20.1314 92.1168 22.9219 90.7518 25.0321 88.8849C27.1423 87.0181 28.5499 84.8866 29.2533 82.4904C29.9496 80.0907 29.9878 77.6403 29.3661 75.1411C28.7773 72.7734 27.7746 70.7538 26.358 69.0805C24.937 67.4144 22.9485 66.274 20.3916 65.6586C17.8347 65.044 14.68 65.2029 10.9277 66.1355C8.07767 66.8442 4.54381 68.0894 0.325195 69.8701L0.53657 71.5291L4.32977 71.2538L9.45605 91.8699L6.10869 93.9384L6.19662 95.5814L16.6606 92.9801ZM8.11942 69.2315C8.67006 69.0397 9.52533 68.7999 10.6861 68.5112C13.1969 67.8869 15.4491 67.8762 17.4412 68.4793C19.4351 69.0876 21.087 70.1747 22.3979 71.7396C23.7096 73.3107 24.6413 75.2024 25.1901 77.4147C25.6742 79.3624 25.699 81.2292 25.2656 83.0153C24.8367 84.7995 23.9059 86.3671 22.4716 87.7188C21.0364 89.0643 19.1127 90.0368 16.6996 90.6363L13.6311 91.3992L8.11942 69.2315ZM37.2083 89.2464C38.7705 89.0972 40.0121 88.6158 40.934 87.8023C41.8559 86.995 42.4909 86.1637 42.8373 85.3102L43.0753 85.2871L43.1073 85.6139C43.1526 86.0917 43.3089 86.5403 43.5744 86.9612C43.8409 87.3822 44.2405 87.7126 44.7752 87.9533C45.3098 88.1939 45.9662 88.2765 46.7442 88.2028C47.3516 88.1451 47.9946 88.003 48.6749 87.7774C49.1146 87.646 49.4423 87.558 49.6581 87.5136L49.762 85.6122L48.6563 85.5216C47.968 85.4745 47.4431 85.367 47.0816 85.1992C46.7273 85.0366 46.4644 84.7791 46.2948 84.4265C46.1296 84.0677 46.0141 83.5402 45.9475 82.8447L45.1953 74.9679C44.9741 72.6517 44.3968 70.9998 43.4643 70.0122C42.5318 69.0308 41.1108 68.6311 39.2013 68.8132C38.1879 68.91 37.1142 69.2235 35.9818 69.7537C34.8486 70.2839 33.9178 70.9323 33.1869 71.6978C32.4568 72.4634 32.1273 73.2201 32.1993 73.9688C32.289 74.912 32.6362 75.4946 33.2402 75.7157C33.8441 75.9315 34.5723 75.999 35.4276 75.9173C35.4178 74.443 35.4338 73.4279 35.4756 72.8711C35.5173 72.3142 35.679 71.8826 35.9587 71.5762C36.2332 71.2706 36.7119 71.085 37.3957 71.0193C38.7688 70.8879 39.8061 71.3426 40.5059 72.3817C41.2049 73.4155 41.6348 74.7717 41.7955 76.452L41.9092 77.6456C39.6613 78.0204 37.8202 78.6155 36.3877 79.4308C34.9551 80.2452 33.9311 81.1786 33.3183 82.2302C32.6993 83.2826 32.4426 84.3661 32.5483 85.4798C32.63 86.3342 32.892 87.0589 33.3361 87.6531C33.7855 88.2463 34.3494 88.6771 35.0297 88.9453C35.7163 89.2188 36.4427 89.3192 37.2083 89.2464ZM42.0273 78.8837L42.5247 84.0908C42.1339 84.6095 41.6108 85.1059 40.9536 85.5793C40.2972 86.0527 39.6205 86.3218 38.9251 86.3884C38.4179 86.4363 37.9694 86.3484 37.5796 86.1237C37.1826 85.8937 36.8717 85.5935 36.6461 85.2232C36.4205 84.8519 36.2891 84.478 36.2536 84.1006C36.147 82.9868 36.5298 82.0046 37.3993 81.1537C38.2643 80.3038 39.8061 79.5471 42.0273 78.8837ZM52.5987 71.8346L52.295 81.8838C52.2275 84.1094 52.6111 85.7321 53.4451 86.7516C54.279 87.7721 55.4505 88.305 56.9603 88.3511C59.5759 88.4302 61.6905 87.3742 63.3015 85.1841L63.5769 85.1921L63.5715 85.3875C63.5431 86.3342 63.7953 87.106 64.3273 87.7028C64.854 88.2996 65.6382 88.6131 66.6809 88.6442C67.3257 88.6638 67.8657 88.6531 68.2982 88.6131C68.7378 88.567 69.3009 88.4746 69.9865 88.336L70.2361 86.5305L69.2396 86.2783C68.6516 86.1299 68.2058 85.9807 67.9029 85.8289C67.6054 85.6717 67.371 85.4132 67.1978 85.0526C67.0255 84.6921 66.9491 84.1627 66.9704 83.4647L67.3949 69.4207L66.9571 68.8922L60.5306 69.2839L60.2482 71.284L63.6914 72.3027L63.3415 83.8785C62.7989 84.4007 62.2056 84.7977 61.5644 85.0695C60.9223 85.3404 60.146 85.4621 59.2339 85.4345C56.9967 85.367 55.923 83.8599 56.0118 80.9122L56.3688 69.0876L55.8342 68.5556L49.9796 68.8318L49.6252 70.545L52.5987 71.8346ZM75.1528 72.2263L73.5106 83.0801C73.1722 85.3226 73.3445 86.9594 74.0284 87.9906C74.7131 89.0155 75.7824 89.6318 77.2354 89.8397C78.4424 90.0128 79.5907 89.892 80.6787 89.48C81.7675 89.0616 82.7196 88.4027 83.5358 87.5021L83.2534 86.2774C83.2516 86.2889 83.0651 86.3795 82.6947 86.5474C82.3235 86.7152 81.8963 86.8582 81.4132 86.9745C80.9247 87.0838 80.4433 87.1051 79.9691 87.0367C79.2071 86.9275 78.6129 86.7108 78.1866 86.3875C77.7665 86.0642 77.4921 85.5766 77.3642 84.9239C77.2354 84.2773 77.2478 83.4149 77.4033 82.3367L78.8394 72.7982L84.7916 73.6499L85.2561 71.7787L79.1458 70.9047L79.8803 65.7705L78.7381 65.607C77.8127 66.5573 76.7993 67.4917 75.6989 68.4109C74.5994 69.3239 73.5586 70.0788 72.5763 70.6729L72.4102 71.8337L75.1528 72.2263ZM92.3718 92.6861L93.0734 91.0706L90.1914 89.4942L93.2999 77.7025C94.1596 77.182 94.9634 76.8739 95.7112 76.777C96.459 76.6802 97.1766 76.7229 97.864 76.9032C98.8489 77.1625 99.6207 77.6936 100.181 78.4965C100.737 79.2922 100.834 80.374 100.473 81.7426L97.8835 91.5671L94.7511 91.6417L94.0814 93.1364L103.553 95.6338L104.251 94.0352L101.379 92.4889L104.076 82.2604C104.705 79.8731 104.695 78.1004 104.044 76.9431C103.4 75.7877 102.262 74.9946 100.63 74.5647C98.4768 73.9972 96.1215 74.5487 93.5619 76.2193L93.3479 76.1625L94.2715 74.0185L96.6348 65.0529L96.244 64.4081L90.0245 63.2642L89.3522 64.8042L92.4286 66.8273L86.6967 88.5723L83.2445 88.4986L82.5731 90.1034L92.3718 92.6861Z" fill="#1F744E"/>
</g>
</g>
</g>
</g>
<g clip-path="url(#clip7_32_2247)">
<g clip-path="url(#clip8_32_2247)">
<path d="M67.5221 39.1239C67.5221 34.9264 62.6857 29.2561 56.1588 27.6005C58.888 25.764 60.7694 22.1444 60.7694 18.8821C60.7694 14.2796 57.0369 10.5488 52.435 10.5488C47.8331 10.5488 44.1058 14.2796 44.1058 18.8821C44.1058 22.1444 45.9814 25.764 48.7153 27.6005C42.1884 29.2561 37.3502 34.9218 37.3502 39.1239C37.345 44.0883 67.5221 44.0883 67.5221 39.1239ZM52.4321 42.8442L48.2067 38.6199L51.764 30.0184H51.7268L50.3441 28.4327C51.0122 28.6713 51.7099 28.8179 52.4327 28.8179C53.156 28.8179 53.852 28.6759 54.5177 28.435L53.1391 30.0184H53.1013L56.6598 38.6199L52.4321 42.8442Z" fill="#297152"/>
<path d="M30.2815 6.9595L35.4112 12.0898L37.8239 9.67537L32.6954 4.54566L34.5302 2.71199L26.2458 0.511719L28.4438 8.7984L30.2815 6.9595Z" fill="#297152"/>
<path d="M74.5827 46.4405L69.4553 41.3102L67.0415 43.7252L72.1701 48.8526L70.3329 50.6897L78.6196 52.8853L76.4193 44.6033L74.5827 46.4405Z" fill="#297152"/>
<path d="M35.4078 41.3074L30.2798 46.4359L28.4438 44.5988L26.2458 52.8854L34.5302 50.6852L32.6919 48.8486L37.8216 43.7212L35.4078 41.3074Z" fill="#297152"/>
<path d="M69.4553 12.0898L74.5867 6.96125L76.4192 8.79607L78.6195 0.511719L70.3328 2.70967L72.1723 4.5474L67.042 9.67711L69.4553 12.0898Z" fill="#297152"/>
</g>
</g>
</g>
</g>
</g>
<defs>
<clipPath id="clip0_32_2247">
<rect width="104.122" height="95.0637" fill="white" transform="translate(0.371704 0.540894)"/>
</clipPath>
<clipPath id="clip1_32_2247">
<rect width="104.214" height="95.1218" fill="white" transform="translate(0.325562 0.511719)"/>
</clipPath>
<clipPath id="clip2_32_2247">
<rect width="104.214" height="95.1218" fill="white" transform="translate(0.325562 0.511719)"/>
</clipPath>
<clipPath id="clip3_32_2247">
<rect width="104.214" height="32.3694" fill="white" transform="translate(0.325562 63.2642)"/>
</clipPath>
<clipPath id="clip4_32_2247">
<rect width="104.214" height="32.3694" fill="white" transform="translate(0.325562 63.2642)"/>
</clipPath>
<clipPath id="clip5_32_2247">
<rect width="104.214" height="32.3694" fill="white" transform="translate(0.325562 63.2642)"/>
</clipPath>
<clipPath id="clip6_32_2247">
<rect width="104.214" height="32.3694" fill="white" transform="translate(0.325562 63.2642)"/>
</clipPath>
<clipPath id="clip7_32_2247">
<rect width="52.3737" height="52.3737" fill="white" transform="translate(26.2458 0.511719)"/>
</clipPath>
<clipPath id="clip8_32_2247">
<rect width="52.3737" height="52.3737" fill="white" transform="translate(26.2458 0.511719)"/>
</clipPath>
</defs>
</svg>
